<?xml version="1.0" encoding="utf-8" ?>
<svg baseProfile="full" height="800px" version="1.1" viewBox="0 0 800 800" width="800px" xmlns="http://www.w3.org/2000/svg" xmlns:ev="http://www.w3.org/2001/xml-events" xmlns:xlink="http://www.w3.org/1999/xlink"><defs /><path d="M 289,573 L 289,575 L 348,575 L 348,573 Z M 221,497 L 221,500 L 222,501 L 223,501 L 234,509 L 237,510 L 239,512 L 240,512 L 242,514 L 243,514 L 245,516 L 246,516 L 254,522 L 257,523 L 259,525 L 260,525 L 270,532 L 270,534 L 268,536 L 262,539 L 245,551 L 242,552 L 228,562 L 222,565 L 221,566 L 221,569 L 222,569 L 232,562 L 233,562 L 235,560 L 236,560 L 238,558 L 239,558 L 241,556 L 244,555 L 261,543 L 264,542 L 266,540 L 273,536 L 275,534 L 275,532 L 270,528 L 267,527 L 253,517 L 250,516 L 236,506 L 233,505 L 231,503 L 230,503 L 228,501 Z " fill="rgb(90,90,90)" fill-rule="evenodd" /><path d="M 476,254 L 476,261 L 478,262 L 487,262 L 488,263 L 491,263 L 492,264 L 494,264 L 498,266 L 507,274 L 511,281 L 511,283 L 513,287 L 513,291 L 514,292 L 514,299 L 515,300 L 515,387 L 516,388 L 516,393 L 517,394 L 517,397 L 520,403 L 520,405 L 522,407 L 522,408 L 529,415 L 533,417 L 533,418 L 530,421 L 526,423 L 521,429 L 518,435 L 518,437 L 517,438 L 516,448 L 515,449 L 515,536 L 514,537 L 514,544 L 513,545 L 512,552 L 510,555 L 510,557 L 508,559 L 506,563 L 499,569 L 493,572 L 491,572 L 490,573 L 487,573 L 486,574 L 478,574 L 476,575 L 476,582 L 484,582 L 485,581 L 490,581 L 491,580 L 497,579 L 501,577 L 506,573 L 507,573 L 512,568 L 512,567 L 516,562 L 516,560 L 518,557 L 518,555 L 520,551 L 520,548 L 521,547 L 521,542 L 522,541 L 522,455 L 523,454 L 523,446 L 524,445 L 524,441 L 525,440 L 525,438 L 529,431 L 532,428 L 533,428 L 537,425 L 539,425 L 542,423 L 547,423 L 548,422 L 559,422 L 561,421 L 561,415 L 560,414 L 551,414 L 550,413 L 545,413 L 544,412 L 541,412 L 540,411 L 538,411 L 534,409 L 527,402 L 526,398 L 525,397 L 525,395 L 524,394 L 524,391 L 523,390 L 523,382 L 522,381 L 522,295 L 521,294 L 521,289 L 520,288 L 519,281 L 517,278 L 516,274 L 514,272 L 512,268 L 503,260 L 497,257 L 491,256 L 490,255 L 487,255 L 486,254 Z M 415,254 L 414,255 L 411,255 L 410,256 L 405,257 L 397,261 L 394,264 L 393,264 L 387,271 L 382,282 L 382,285 L 381,286 L 381,289 L 380,290 L 380,297 L 379,298 L 379,385 L 378,386 L 378,391 L 377,392 L 376,398 L 373,404 L 370,407 L 363,411 L 357,412 L 356,413 L 352,413 L 351,414 L 341,414 L 341,421 L 342,422 L 354,422 L 355,423 L 359,423 L 360,424 L 362,424 L 368,427 L 373,432 L 377,440 L 377,443 L 378,444 L 378,450 L 379,451 L 379,538 L 380,539 L 380,546 L 381,547 L 381,550 L 382,551 L 382,553 L 383,554 L 383,556 L 384,557 L 384,559 L 386,563 L 392,570 L 392,571 L 393,571 L 397,575 L 400,576 L 402,578 L 404,578 L 405,579 L 407,579 L 411,581 L 416,581 L 417,582 L 425,582 L 425,575 L 424,574 L 415,574 L 414,573 L 408,572 L 402,569 L 393,560 L 390,554 L 389,548 L 388,547 L 388,543 L 387,542 L 387,530 L 386,529 L 386,447 L 385,446 L 385,441 L 384,440 L 384,437 L 383,436 L 383,434 L 381,430 L 374,422 L 373,422 L 368,418 L 369,416 L 372,415 L 375,412 L 376,412 L 380,407 L 383,401 L 383,399 L 385,395 L 385,390 L 386,389 L 386,306 L 387,305 L 387,294 L 388,293 L 389,285 L 390,284 L 390,282 L 393,276 L 399,269 L 400,269 L 405,265 L 407,265 L 410,263 L 414,263 L 415,262 L 424,262 L 425,261 L 425,254 Z " fill="rgb(255,66,0)" fill-rule="evenodd" /></svg>